<?xml version="1.0" standalone="no"?><!DOCTYPE svg PUBLIC "-//W3C//DTD SVG 1.1//EN" "http://www.w3.org/Graphics/SVG/1.1/DTD/svg11.dtd"><svg t="1648690419109" class="icon" viewBox="0 0 1024 1024" version="1.1" xmlns="http://www.w3.org/2000/svg" p-id="2501" xmlns:xlink="http://www.w3.org/1999/xlink" width="200" height="200"><defs><style type="text/css">@font-face { font-family: feedback-iconfont; src: url("//at.alicdn.com/t/font_1031158_u69w8yhxdu.woff2?t=1630033759944") format("woff2"), url("//at.alicdn.com/t/font_1031158_u69w8yhxdu.woff?t=1630033759944") format("woff"), url("//at.alicdn.com/t/font_1031158_u69w8yhxdu.ttf?t=1630033759944") format("truetype"); }
</style></defs><path d="M933.4784 359.0656l-10.1376-8.9088h-71.0656L788.48 184.5248 663.7568 184.32l-51.0464-85.248H416L365.2608 184.32h-128.512L170.5984 350.1568H102.2976L92.16 359.0656c-33.3824 29.3376-45.7216 69.888-32.2048 105.8304 8.2432 21.8624 25.088 38.912 45.824 47.9232l-25.344 63.5392 0.256 350.1056h35.84c36.4032 0 60.5184 0.0512 81.1008 0.1024 15.36 0.0512 28.7232 0.0512 43.7248 0.0512h35.84v-92.416h464.3328v94.976h196.7616v-352.512l-23.4496-61.8496c22.9888-8.2944 41.9328-26.3168 50.8416-49.92 13.5168-35.8912 1.1776-76.4928-32.2048-105.8304zM375.9616 397.4144l58.6752 41.1136-3.9424 5.5808h237.9776v71.68H292.9664l82.9952-118.3744z m278.6304 280.8832l-58.6752-41.1648 3.8912-5.5808H361.8304v-71.68h375.7056l-82.944 118.4256z" fill="#00A0FE" p-id="2502"></path><path d="M116.48 926.464c36.4032 0 60.5184 0.0512 81.1008 0.1024 15.36 0.0512 28.7232 0.0512 43.7248 0.0512h35.84V834.56H80.64l0.0512 91.904h35.7888zM741.5296 834.5088h196.7616v94.6688h-196.7616z" fill="#97D8FF" p-id="2503"></path></svg>